<svg width="195" height="40" viewBox="0 0 195 40" fill="none" xmlns="http://www.w3.org/2000/svg">
<path d="M21.7533 23.5767C23.8377 23.5767 24.96 22.4543 24.96 20.37V17.2067C24.96 15.1223 23.8377 14 21.7533 14H0V27H2.94667V23.5767H21.7533ZM22.0133 17.38V20.1967C22.0133 20.5347 21.8313 20.7167 21.4933 20.7167H2.94667V16.86H21.4933C21.8313 16.86 22.0133 17.042 22.0133 17.38ZM31.8933 27C29.809 27 28.6867 25.8777 28.6867 23.7933V17.2067C28.6867 15.1223 29.809 14 31.8933 14H49.9633C52.0477 14 53.17 15.1223 53.17 17.2067V23.7933C53.17 25.8777 52.0477 27 49.9633 27H31.8933ZM49.7033 24.14C50.0413 24.14 50.2233 23.958 50.2233 23.62V17.38C50.2233 17.042 50.0413 16.86 49.7033 16.86H32.1533C31.8153 16.86 31.6333 17.042 31.6333 17.38V23.62C31.6333 23.958 31.8153 24.14 32.1533 24.14H49.7033ZM78.9533 22.58C80.6799 23.3061 81.8936 25.011 81.9 27H78.9533C78.9533 24.66 77.87 23.5767 75.53 23.5767H59.8867V27H56.94V14H78.6933C80.7777 14 81.9 15.1223 81.9 17.2067V19.3794C81.9 21.3753 80.8708 22.489 78.9533 22.58ZM78.4333 20.7167C78.7713 20.7167 78.9533 20.5347 78.9533 20.1967V17.38C78.9533 17.042 78.7713 16.86 78.4333 16.86H59.8867V20.7167H78.4333ZM85.4533 17.2067C85.4533 15.1223 86.5757 14 88.66 14H109.98V16.4267H88.92C88.582 16.4267 88.4 16.6087 88.4 16.9467V18.7667C88.4 19.1047 88.582 19.2867 88.92 19.2867H107.207C109.291 19.2867 110.413 20.409 110.413 22.4933V23.7933C110.413 25.8777 109.291 27 107.207 27H85.8867V24.5733H106.947C107.285 24.5733 107.467 24.3913 107.467 24.0533V22.2333C107.467 21.8953 107.285 21.7133 106.947 21.7133H88.66C86.5757 21.7133 85.4533 20.591 85.4533 18.5067V17.2067ZM114.097 17.2067C114.097 15.1223 115.219 14 117.303 14H138.103V16.86H117.563C117.225 16.86 117.043 17.042 117.043 17.38V23.62C117.043 23.958 117.225 24.14 117.563 24.14H138.103V27H117.303C115.219 27 114.097 25.8777 114.097 23.7933V17.2067ZM165.403 14V27H162.457V21.93H144.82V27H141.873V14H144.82V19.07H162.457V14H165.403ZM172.163 16.4267V19.2867H195V21.7133H172.163V24.5733H195V27H169.217V14H195V16.4267H172.163Z" fill="#0C0C0C"/>
</svg>
